<?xml version="1.0" encoding="UTF-8"?>
<svg id="Capa_1" data-name="Capa 1" xmlns="http://www.w3.org/2000/svg" viewBox="0 0 1672.45 1692.6">
  <defs>
    <style>
      .cls-1 {
        fill: #fff;
      }
    </style>
  </defs>
  <path class="cls-1" d="M804.6.52c314.94-8.06,639.79,76.55,782.58,383.22,89.1,191.36,100.1,466.65,70.66,673.4-37.28,261.81-156.93,464.13-408.28,565.5-240.28,96.91-626.36,94.24-862.32-14.84C47.4,1450.7-11.91,1107.99,1.78,766.09,12.12,508.01,83.21,268,312.18,125.11,458.41,33.85,634.13,4.88,804.6.52ZM1045.71,374.34c-2.55.77-3.84,3.19-4.97,5.37l-35.11,68.26,40.5,69.92,77.64.13,40.83-70.77-37.53-70.49c-1.23-2.69-3.27-2.57-5.75-2.86-15.14-1.76-31.98,1.8-46.57,1.93-8.79.07-21.18-3.86-29.03-1.49ZM744.63,442.95h-461.04l-76.7,425.7,141.91,6.62c78.42-107.73,272.26-99.12,313.11,38.19l91.2-125.2c-70.25-106.29-213.64-143.72-332.49-106.59-14.24,4.45-27.66,10.67-41.36,16.36l18.94-115.48,265.93.03,80.5-100.85v-38.78ZM1175.52,1270.23c155.06-13.26,272.22-123.2,313.18-270.21,58.85-211.24-12.47-474.71-239.48-545.46-12.58-3.92-25.51-6.96-38.35-9.91l-.5,27.12-76.21,115.94c83.25-6.46,156.28,39.55,193.32,112.61,40.36,79.6,42.57,201.28,11.34,284.24-30.17,80.15-100.8,140.21-189.14,139.19l25.85,146.48ZM1246.16,632.54l-157.33,30.72c-2.93-.89-10.55-14.3-12.95-18.13-25.08-40.03-46.18-83.94-70.7-124.06-9.99-16.35-13.23-23.4-33.92-26.4-42.32-6.14-102.78-7.6-146.4-8.71-7.98-.2-16.15.75-23.37,4.37-14.05,7.05-39.72,48.29-51.01,62.75-18.61,23.84-37.59,47.45-56.66,70.92l-1,4.13c6.46,19.59,8.88,41.57,15.16,60.92.74,2.27-.68,4.57,3.02,3.79l118.15-126.74,110.83,11.56c2.5.82,9.74,14.16,11.78,17.52,24.15,39.91,50.34,99.37,77.56,134.43,12.39,15.96,25.46,23.31,45.83,15.39l148.23-49.1,22.79-63.38ZM181.04,1008.26c12.12,91.04,72.64,176.09,152.24,220.9,6.97,3.92,37.83,20.06,43.54,20.41,1.99.12,3.64-.22,5.1-1.65l154.25-135.31,175.32-26.33c92.51-113.07,179.66-230.38,268.92-346.01l-59.12-102.53c-65.04,88.17-126.59,178.87-190.77,267.65-23.29,32.21-46.45,65.06-71.42,95.76l-156.28,31.58-76.43,83.83c-33.93-13.96-63.48-37.6-80.79-70.35-6.47-12.24-10.17-25.27-15.48-37.95h-149.08ZM1127.24,1278.84l-49.2-284.28-132.38-127.5-63.03,81.5,122.33,88.05,54.28,209.42c6.5,5,65.36,35.54,67.99,32.81ZM964.73,1067.34l-112.68-77.81-4.03,2.31-38.79,50.93c-1.2,1.79-.96,3.58-.57,5.55,1.49,7.51,14.02,30.67,18.39,38.64,28.45,51.91,75.23,100.73,126.68,130.12,6.06,3.46,52.15,27.34,54.59,25.54l-43.59-175.3ZM445.82,1271.74c48.69,7.89,104.54,4,151.91-9.67,97.76-28.2,175.12-103.49,202.06-202.09-3.44-.63-4.86,2.29-6.84,4.34-19.04,19.72-33.33,47.87-52.99,67.65l-181.33,25.5"/>
</svg>